<svg width="63" height="24" viewBox="0 0 63 24" fill="none" xmlns="http://www.w3.org/2000/svg">
<path d="M11.0781 16.0156V0.25H15.75V16.0156C15.75 17.5365 15.4167 18.8438 14.75 19.9375C14.0833 21.0208 13.1719 21.8542 12.0156 22.4375C10.8698 23.0208 9.57812 23.3125 8.14062 23.3125C6.65104 23.3125 5.33333 23.0625 4.1875 22.5625C3.04167 22.0625 2.14062 21.2969 1.48438 20.2656C0.828125 19.224 0.5 17.9062 0.5 16.3125H5.20312C5.20312 17.1458 5.31771 17.8073 5.54688 18.2969C5.78646 18.7865 6.125 19.1354 6.5625 19.3438C7 19.5521 7.52604 19.6562 8.14062 19.6562C8.73438 19.6562 9.25 19.5156 9.6875 19.2344C10.125 18.9531 10.4635 18.5417 10.7031 18C10.9531 17.4583 11.0781 16.7969 11.0781 16.0156ZM28.5938 19.1875V11.6562C28.5938 11.1146 28.5052 10.651 28.3281 10.2656C28.151 9.86979 27.875 9.5625 27.5 9.34375C27.1354 9.125 26.6615 9.01562 26.0781 9.01562C25.5781 9.01562 25.1458 9.10417 24.7812 9.28125C24.4167 9.44792 24.1354 9.69271 23.9375 10.0156C23.7396 10.3281 23.6406 10.6979 23.6406 11.125H19.1406C19.1406 10.4062 19.3073 9.72396 19.6406 9.07812C19.974 8.43229 20.4583 7.86458 21.0938 7.375C21.7292 6.875 22.4844 6.48438 23.3594 6.20312C24.2448 5.92188 25.2344 5.78125 26.3281 5.78125C27.6406 5.78125 28.8073 6 29.8281 6.4375C30.849 6.875 31.651 7.53125 32.2344 8.40625C32.8281 9.28125 33.125 10.375 33.125 11.6875V18.9219C33.125 19.849 33.1823 20.6094 33.2969 21.2031C33.4115 21.7865 33.5781 22.2969 33.7969 22.7344V23H29.25C29.0312 22.5417 28.8646 21.9688 28.75 21.2812C28.6458 20.5833 28.5938 19.8854 28.5938 19.1875ZM29.1875 12.7031L29.2188 15.25H26.7031C26.1094 15.25 25.5938 15.3177 25.1562 15.4531C24.7188 15.5885 24.3594 15.7812 24.0781 16.0312C23.7969 16.2708 23.5885 16.5521 23.4531 16.875C23.3281 17.1979 23.2656 17.5521 23.2656 17.9375C23.2656 18.3229 23.3542 18.6719 23.5312 18.9844C23.7083 19.2865 23.9635 19.526 24.2969 19.7031C24.6302 19.8698 25.0208 19.9531 25.4688 19.9531C26.1458 19.9531 26.7344 19.8177 27.2344 19.5469C27.7344 19.276 28.1198 18.9427 28.3906 18.5469C28.6719 18.151 28.8177 17.776 28.8281 17.4219L30.0156 19.3281C29.849 19.7552 29.6198 20.1979 29.3281 20.6562C29.0469 21.1146 28.6875 21.5469 28.25 21.9531C27.8125 22.349 27.2865 22.6771 26.6719 22.9375C26.0573 23.1875 25.3281 23.3125 24.4844 23.3125C23.4115 23.3125 22.4375 23.099 21.5625 22.6719C20.6979 22.2344 20.0104 21.6354 19.5 20.875C19 20.1042 18.75 19.2292 18.75 18.25C18.75 17.3646 18.9167 16.5781 19.25 15.8906C19.5833 15.2031 20.0729 14.625 20.7188 14.1562C21.375 13.6771 22.1927 13.3177 23.1719 13.0781C24.151 12.8281 25.2865 12.7031 26.5781 12.7031H29.1875ZM41.0938 9.78125V23H36.5938V6.09375H40.8281L41.0938 9.78125ZM46.1875 5.98438L46.1094 10.1562C45.8906 10.125 45.625 10.099 45.3125 10.0781C45.0104 10.0469 44.7344 10.0312 44.4844 10.0312C43.849 10.0312 43.2969 10.1146 42.8281 10.2812C42.3698 10.4375 41.9844 10.6719 41.6719 10.9844C41.3698 11.2969 41.1406 11.6771 40.9844 12.125C40.8385 12.5729 40.7552 13.0833 40.7344 13.6562L39.8281 13.375C39.8281 12.2812 39.9375 11.276 40.1562 10.3594C40.375 9.43229 40.6927 8.625 41.1094 7.9375C41.5365 7.25 42.0573 6.71875 42.6719 6.34375C43.2865 5.96875 43.9896 5.78125 44.7812 5.78125C45.0312 5.78125 45.2865 5.80208 45.5469 5.84375C45.8073 5.875 46.0208 5.92188 46.1875 5.98438ZM56.9062 19.1875V11.6562C56.9062 11.1146 56.8177 10.651 56.6406 10.2656C56.4635 9.86979 56.1875 9.5625 55.8125 9.34375C55.4479 9.125 54.974 9.01562 54.3906 9.01562C53.8906 9.01562 53.4583 9.10417 53.0938 9.28125C52.7292 9.44792 52.4479 9.69271 52.25 10.0156C52.0521 10.3281 51.9531 10.6979 51.9531 11.125H47.4531C47.4531 10.4062 47.6198 9.72396 47.9531 9.07812C48.2865 8.43229 48.7708 7.86458 49.4062 7.375C50.0417 6.875 50.7969 6.48438 51.6719 6.20312C52.5573 5.92188 53.5469 5.78125 54.6406 5.78125C55.9531 5.78125 57.1198 6 58.1406 6.4375C59.1615 6.875 59.9635 7.53125 60.5469 8.40625C61.1406 9.28125 61.4375 10.375 61.4375 11.6875V18.9219C61.4375 19.849 61.4948 20.6094 61.6094 21.2031C61.724 21.7865 61.8906 22.2969 62.1094 22.7344V23H57.5625C57.3438 22.5417 57.1771 21.9688 57.0625 21.2812C56.9583 20.5833 56.9062 19.8854 56.9062 19.1875ZM57.5 12.7031L57.5312 15.25H55.0156C54.4219 15.25 53.9062 15.3177 53.4688 15.4531C53.0312 15.5885 52.6719 15.7812 52.3906 16.0312C52.1094 16.2708 51.901 16.5521 51.7656 16.875C51.6406 17.1979 51.5781 17.5521 51.5781 17.9375C51.5781 18.3229 51.6667 18.6719 51.8438 18.9844C52.0208 19.2865 52.276 19.526 52.6094 19.7031C52.9427 19.8698 53.3333 19.9531 53.7812 19.9531C54.4583 19.9531 55.0469 19.8177 55.5469 19.5469C56.0469 19.276 56.4323 18.9427 56.7031 18.5469C56.9844 18.151 57.1302 17.776 57.1406 17.4219L58.3281 19.3281C58.1615 19.7552 57.9323 20.1979 57.6406 20.6562C57.3594 21.1146 57 21.5469 56.5625 21.9531C56.125 22.349 55.599 22.6771 54.9844 22.9375C54.3698 23.1875 53.6406 23.3125 52.7969 23.3125C51.724 23.3125 50.75 23.099 49.875 22.6719C49.0104 22.2344 48.3229 21.6354 47.8125 20.875C47.3125 20.1042 47.0625 19.2292 47.0625 18.25C47.0625 17.3646 47.2292 16.5781 47.5625 15.8906C47.8958 15.2031 48.3854 14.625 49.0312 14.1562C49.6875 13.6771 50.5052 13.3177 51.4844 13.0781C52.4635 12.8281 53.599 12.7031 54.8906 12.7031H57.5Z" fill="#DBDFEA"/>
</svg>
